#N canvas 579 219 1028 803 10;
#X obj 247 392 list;
#X obj 247 367 t b b;
#X obj 430 385 f;
#X obj 458 385 + 1;
#X msg 445 333 0;
#X obj 445 357 t f f;
#X obj 430 441 sel;
#X obj 492 377 loadbang;
#X obj 492 400 \$1;
#X obj 492 423 -1;
#X obj 247 529 t f b;
#X obj 247 588 +;
#X obj 247 618 list prepend;
#X obj 247 641 t a a;
#X obj 226 666 list;
#X obj 226 689 list append;
#X msg 247 314 1;
#X obj 430 408 t f f;
#X obj 226 714 outlet;
#X obj 50 41 inlet;
#X obj 81 277 loadbang;
#X msg 81 300 1e+15;
#X obj 50 253 list prepend;
#X obj 129 178 text define \$0-data;
#X obj 50 324 text set \$0-data;
#X obj 247 205 text size \$0-data;
#X obj 247 272 t b l;
#X text 482 339 counter that keeps track of number of iterations based on 1st argument;
#N canvas 1154 446 302 278 drip_list 0;
#X obj 111 25 inlet;
#X obj 111 198 outlet;
#X obj 111 65 list split 1;
#X obj 111 115 list;
#X obj 111 138 route bang;
#X obj 111 88 t b f;
#X obj 56 198 outlet;
#X connect 0 0 2 0;
#X connect 2 0 5 0;
#X connect 2 1 3 1;
#X connect 3 0 4 0;
#X connect 4 0 1 0;
#X connect 4 1 2 0;
#X connect 5 0 3 0;
#X connect 5 1 6 0;
#X restore 247 421 pd drip_list;
#X text 378 556 add a random value based on 2nd argument;
#X text 296 642 extend the list for all input data at every sample;
#X text 311 686 when done \, append the output data and output the randomized sample;
#X obj 320 64 t l l;
#X obj 389 82 list length;
#X obj 320 107 list prepend;
#X obj 320 41 inlet input_data;
#X text 47 15 a list in the first inlet is the output data;
#N canvas 879 324 450 590 arguments 0;
#X obj 28 34 loadbang;
#X msg 28 57 args;
#X obj 28 80 pdcontrol;
#X obj 28 103 t l l;
#X obj 155 121 list length;
#X obj 155 144 == 2;
#X obj 155 167 t f f;
#X obj 28 126 t l l;
#X obj 28 185 spigot;
#X obj 182 192 == 0;
#X obj 149 216 spigot;
#X obj 28 208 t b;
#X msg 28 231 0;
#X obj 28 254 s \$0-rand_val;
#N canvas 1154 446 302 278 drip_list 0;
#X obj 101 25 inlet;
#X obj 101 198 outlet;
#X obj 101 65 list split 1;
#X obj 101 115 list;
#X obj 101 138 route bang;
#X obj 101 88 t b f;
#X obj 51 198 outlet;
#X connect 0 0 2 0;
#X connect 2 0 5 0;
#X connect 2 1 3 1;
#X connect 3 0 4 0;
#X connect 4 0 1 0;
#X connect 4 1 2 0;
#X connect 5 0 3 0;
#X connect 5 1 6 0;
#X restore 183 409 pd drip_list;
#X obj 149 239 t l b;
#X msg 195 257 1;
#X obj 195 280 s \$0-rand_val;
#X obj 183 334 t l l;
#X obj 210 359 list length;
#X obj 210 384 array size \$0-rand_ranges;
#X obj 183 545 array define \$0-rand_ranges;
#X obj 183 432 t b f;
#X obj 183 475 f;
#X obj 183 498 t f f;
#X obj 210 475 + 1;
#X obj 183 521 pack;
#X obj 149 310 list split 1;
#X msg 252 433 0;
#X connect 0 0 1 0;
#X connect 1 0 2 0;
#X connect 2 0 3 0;
#X connect 3 0 7 0;
#X connect 3 1 4 0;
#X connect 4 0 5 0;
#X connect 5 0 6 0;
#X connect 6 0 8 1;
#X connect 6 1 9 0;
#X connect 7 0 8 0;
#X connect 7 1 10 0;
#X connect 8 0 11 0;
#X connect 9 0 10 1;
#X connect 10 0 15 0;
#X connect 11 0 12 0;
#X connect 12 0 13 0;
#X connect 14 0 22 0;
#X connect 14 1 28 0;
#X connect 15 0 27 0;
#X connect 15 1 16 0;
#X connect 16 0 17 0;
#X connect 18 0 14 0;
#X connect 18 1 19 0;
#X connect 19 0 20 0;
#X connect 22 0 23 0;
#X connect 22 1 26 1;
#X connect 23 0 24 0;
#X connect 24 0 26 0;
#X connect 24 1 25 0;
#X connect 25 0 23 1;
#X connect 26 0 21 0;
#X connect 27 1 18 0;
#X connect 28 0 23 1;
#X restore 435 54 pd arguments;
#N canvas 1292 390 674 610 random_value 0;
#X obj 38 77 inlet;
#X obj 256 95 r \$0-rand_val;
#X obj 241 118 f;
#X obj 241 168 t f f;
#X obj 71 186 spigot;
#X obj 268 223 == 0;
#X obj 235 248 spigot;
#X obj 235 271 \$2;
#X obj 262 516 / 2;
#X obj 38 462 random;
#X obj 235 444 t f f;
#X obj 38 534 -;
#X obj 71 238 f;
#X obj 71 261 t f f;
#X obj 98 238 + 1;
#X obj 71 284 tabread \$0-rand_ranges;
#X obj 71 307 t f f;
#X msg 86 208 0;
#X obj 86 77 inlet done;
#X obj 38 557 outlet;
#X text 36 20 here we determine the range of the random value \, in case we provide a list instead of a single value;
#X obj 38 100 t b b b b;
#X obj 235 295 t f f;
#X obj 235 400 *;
#X obj 319 313 <= 1;
#X obj 319 336 * 99;
#X obj 319 359 + 1;
#X obj 319 382 t f f;
#X obj 38 498 /;
#X text 283 251 if we define a float we must remap the range before and after the random value. in case of a float \, we multiply the range by a 100 and then divide tha random value by 100 . in case of an int \, we leave the range value intact;
#X connect 0 0 21 0;
#X connect 1 0 2 1;
#X connect 2 0 3 0;
#X connect 3 0 4 1;
#X connect 3 1 5 0;
#X connect 4 0 12 0;
#X connect 5 0 6 1;
#X connect 6 0 7 0;
#X connect 7 0 22 0;
#X connect 8 0 11 1;
#X connect 9 0 28 0;
#X connect 10 0 9 1;
#X connect 10 1 8 0;
#X connect 11 0 19 0;
#X connect 12 0 13 0;
#X connect 13 0 15 0;
#X connect 13 1 14 0;
#X connect 14 0 12 1;
#X connect 15 0 16 0;
#X connect 16 0 9 1;
#X connect 16 1 8 0;
#X connect 17 0 12 1;
#X connect 18 0 17 0;
#X connect 21 0 9 0;
#X connect 21 1 4 0;
#X connect 21 2 6 0;
#X connect 21 3 2 0;
#X connect 22 0 23 0;
#X connect 22 1 24 0;
#X connect 23 0 10 0;
#X connect 24 0 25 0;
#X connect 25 0 26 0;
#X connect 26 0 27 0;
#X connect 27 0 23 1;
#X connect 27 1 28 1;
#X connect 28 0 11 0;
#X restore 274 554 pd random_value;
#X obj 316 444 t b b b;
#X msg 129 152 clear;
#X obj 247 342 metro 1;
#X obj 129 129 t b b;
#X msg 168 129 click;
#X msg 208 100 close;
#X obj 418 228 t b b;
#N canvas 207 393 574 469 split_sample 0;
#X obj 85 15 inlet;
#X obj 224 15 inlet;
#X obj 85 391 outlet;
#X obj 113 361 outlet;
#X obj 85 107 f;
#X obj 124 107 + 1;
#X obj 85 259 list split 1;
#X obj 85 331 list split;
#X obj 85 306 list;
#X obj 85 282 t b f;
#X obj 85 236 text get \$0-data;
#X text 176 259 first element of a sample is the length of the list of the input data;
#X msg 100 83 0;
#X obj 85 39 t b f;
#X obj 85 130 t f f f;
#X obj 130 15 inlet reset;
#X obj 118 155 <;
#X obj 85 204 spigot;
#X obj 118 179 t f f;
#X obj 213 220 outlet done;
#X obj 213 197 sel 0;
#X connect 0 0 13 0;
#X connect 1 0 4 0;
#X connect 4 0 14 0;
#X connect 5 0 4 1;
#X connect 6 0 9 0;
#X connect 6 1 8 1;
#X connect 7 0 2 0;
#X connect 7 1 3 0;
#X connect 8 0 7 0;
#X connect 9 0 8 0;
#X connect 9 1 7 1;
#X connect 10 0 6 0;
#X connect 12 0 4 1;
#X connect 13 0 4 0;
#X connect 13 1 16 1;
#X connect 14 0 17 0;
#X connect 14 1 16 0;
#X connect 14 2 5 0;
#X connect 15 0 12 0;
#X connect 16 0 18 0;
#X connect 17 0 10 0;
#X connect 18 0 17 1;
#X connect 18 1 20 0;
#X connect 20 0 19 0;
#X restore 247 246 pd split_sample;
#X obj 334 271 outlet done;
#X obj 50 64 route list float clear show hide augment;
#X connect 0 0 28 0;
#X connect 1 0 0 0;
#X connect 1 1 2 0;
#X connect 2 0 17 0;
#X connect 3 0 2 1;
#X connect 4 0 5 0;
#X connect 5 0 2 1;
#X connect 5 1 41 0;
#X connect 6 0 45 0;
#X connect 7 0 8 0;
#X connect 8 0 9 0;
#X connect 9 0 6 1;
#X connect 10 0 11 0;
#X connect 10 1 38 0;
#X connect 11 0 12 0;
#X connect 12 0 13 0;
#X connect 13 0 14 1;
#X connect 13 1 12 1;
#X connect 14 0 15 0;
#X connect 15 0 18 0;
#X connect 16 0 41 0;
#X connect 17 0 6 0;
#X connect 17 1 3 0;
#X connect 19 0 48 0;
#X connect 20 0 21 0;
#X connect 21 0 24 1;
#X connect 22 0 24 0;
#X connect 25 0 46 0;
#X connect 26 0 16 0;
#X connect 26 1 0 1;
#X connect 28 0 10 0;
#X connect 28 1 39 0;
#X connect 32 0 34 0;
#X connect 32 1 33 0;
#X connect 33 0 34 1;
#X connect 34 0 22 1;
#X connect 35 0 32 0;
#X connect 38 0 11 1;
#X connect 39 0 14 0;
#X connect 39 1 12 1;
#X connect 39 2 38 1;
#X connect 40 0 23 0;
#X connect 41 0 1 0;
#X connect 42 0 40 0;
#X connect 42 1 46 1;
#X connect 43 0 23 0;
#X connect 44 0 23 0;
#X connect 45 0 46 2;
#X connect 45 1 4 0;
#X connect 46 0 26 0;
#X connect 46 1 15 1;
#X connect 46 2 47 0;
#X connect 48 0 22 0;
#X connect 48 1 22 0;
#X connect 48 2 42 0;
#X connect 48 3 43 0;
#X connect 48 4 44 0;
#X connect 48 5 25 0;
