#N canvas 770 87 627 691 10;
#X obj 132 360 osc~;
#X obj 132 382 *~;
#X obj 39 422 osc~;
#X obj 39 399 +~;
#X obj 39 444 *~;
#X msg 136 578 0.707;
#X msg 185 578 -12;
#X obj 39 485 +~;
#X obj 39 507 tabosc4~ \$0-sine;
#X obj 39 529 *~ 0.2;
#X msg 163 462 sinesum 8192 1 0.1;
#X obj 163 484 s \$0-sine;
#X obj 136 548 t b b;
#X obj 39 627 outlet~;
#X obj 39 604 filters/omniFilter_abs~ peaknotch;
#X obj 54 126 inlet~ fcar;
#X obj 141 126 inlet~ ratio1;
#X obj 229 126 inlet~ ratio2;
#X obj 317 126 inlet~ index1;
#X obj 405 126 inlet~ index2;
#X obj 54 14 loadbang;
#X obj 54 77 t b b b b b, f 59;
#X obj 54 100 \$1;
#X obj 141 100 \$2;
#X obj 229 100 \$3;
#X obj 317 100 \$4;
#X obj 405 100 \$5;
#X obj 136 438 t b b;
#X obj 89 246 *~;
#X obj 132 316 *~;
#X obj 89 427 *~;
#X obj 169 365 *~;
#X obj 163 512 array define \$0-sine 8192;
#X obj 54 36 t b b;
#X connect 0 0 1 0;
#X connect 1 0 3 1;
#X connect 2 0 4 0;
#X connect 3 0 2 0;
#X connect 4 0 7 0;
#X connect 5 0 14 2;
#X connect 6 0 14 3;
#X connect 7 0 8 0;
#X connect 8 0 9 0;
#X connect 9 0 14 0;
#X connect 10 0 11 0;
#X connect 12 0 5 0;
#X connect 12 1 6 0;
#X connect 14 0 13 0;
#X connect 15 0 14 1;
#X connect 15 0 7 1;
#X connect 15 0 28 0;
#X connect 16 0 28 1;
#X connect 17 0 29 1;
#X connect 18 0 30 1;
#X connect 19 0 31 1;
#X connect 20 0 33 0;
#X connect 21 0 22 0;
#X connect 21 1 23 0;
#X connect 21 2 24 0;
#X connect 21 3 25 0;
#X connect 21 4 26 0;
#X connect 22 0 15 0;
#X connect 23 0 16 0;
#X connect 24 0 17 0;
#X connect 25 0 18 0;
#X connect 26 0 19 0;
#X connect 27 0 12 0;
#X connect 27 1 10 0;
#X connect 28 0 3 0;
#X connect 28 0 29 0;
#X connect 28 0 30 0;
#X connect 29 0 0 0;
#X connect 29 0 31 0;
#X connect 30 0 4 1;
#X connect 31 0 1 1;
#X connect 33 0 21 0;
#X connect 33 1 27 0;
