#N canvas 51 37 997 891 12;
#X obj 800 65 namecanvas \$0-pad;
#X obj 362 481 route size;
#X obj 179 529 unpack, f 10;
#X obj 211 505 unpack;
#X obj 362 505 unpack;
#X obj 179 553 -;
#X obj 246 553 -;
#X obj 179 625 &&;
#X obj 246 625 &&;
#X obj 179 649 &&;
#X obj 171 65 loadbang;
#X obj 171 113 f \$1;
#X obj 221 113 f \$2;
#X obj 171 185 pack;
#X obj 171 137 sel 0;
#X obj 221 137 sel 0;
#X obj 171 233 s \$0-pad;
#X obj 211 457 iemguts/canvasposition;
#X obj 60 385 iemguts/receivecanvas 1;
#X obj 171 89 t b b;
#X obj 179 433 t l b;
#X obj 60 409 route mouseup mouse motion;
#X msg 60 649 0;
#X msg 119 649 1;
#X msg 171 161 127;
#X msg 221 161 127;
#X obj 225 736 pack;
#X obj 179 577 t f f f;
#X obj 246 577 t f f f;
#X obj 119 673 spigot;
#X obj 112 786 spigot;
#X obj 119 697 t b f;
#X obj 112 810 outlet;
#X obj 179 601 >= 0;
#X obj 246 601 >= 0;
#X obj 283 601 <;
#X obj 216 601 <;
#X obj 292 697 clip;
#X obj 225 697 clip;
#X obj 362 601 - 1;
#X obj 401 601 - 1;
#X obj 60 65 inlet;
#X msg 171 209 donecanvasdialog 0 0 -1 0 -1 1 1 \$1 \$2 800 100 1 \, dirty 0;
#X obj 60 89 route size;
#X text 804 800 Ben Wesch \, 2023;
#X connect 1 0 4 0;
#X connect 2 0 5 0;
#X connect 2 1 6 0;
#X connect 3 0 5 1;
#X connect 3 1 6 1;
#X connect 4 0 36 1;
#X connect 4 0 39 0;
#X connect 4 1 35 1;
#X connect 4 1 40 0;
#X connect 5 0 27 0;
#X connect 6 0 28 0;
#X connect 7 0 9 0;
#X connect 8 0 9 1;
#X connect 9 0 29 1;
#X connect 10 0 19 0;
#X connect 11 0 14 0;
#X connect 12 0 15 0;
#X connect 13 0 42 0;
#X connect 14 0 24 0;
#X connect 14 1 13 0;
#X connect 15 0 25 0;
#X connect 15 1 13 1;
#X connect 17 0 3 0;
#X connect 17 2 1 0;
#X connect 18 0 21 0;
#X connect 19 0 11 0;
#X connect 19 1 12 0;
#X connect 20 0 2 0;
#X connect 20 1 17 0;
#X connect 21 0 22 0;
#X connect 21 1 23 0;
#X connect 21 2 20 0;
#X connect 22 0 30 1;
#X connect 23 0 29 0;
#X connect 24 0 13 0;
#X connect 25 0 13 1;
#X connect 26 0 30 0;
#X connect 27 0 33 0;
#X connect 27 1 36 0;
#X connect 27 2 38 0;
#X connect 28 0 34 0;
#X connect 28 1 35 0;
#X connect 28 2 37 0;
#X connect 29 0 31 0;
#X connect 30 0 32 0;
#X connect 31 0 26 0;
#X connect 31 1 30 1;
#X connect 33 0 7 0;
#X connect 34 0 8 0;
#X connect 35 0 8 1;
#X connect 36 0 7 1;
#X connect 37 0 26 1;
#X connect 38 0 26 0;
#X connect 39 0 38 2;
#X connect 40 0 37 2;
#X connect 41 0 43 0;
#X connect 42 0 16 0;
#X connect 43 0 42 0;
#X coords 0 -1 1 1 127 127 2 800 100;
