#N canvas 258 370 389 300 10;
#X obj 21 28 inlet;
#X obj 21 182 pack f f;
#X obj 21 204 line~;
#X obj 21 226 outlet~;
#X obj 66 82 loadbang;
#X obj 66 104 \$1;
#X obj 66 126 sel 0;
#X msg 66 148 20;
#X obj 99 164 inlet;
#X text 144 163 override argument;
#X obj 21 51 route float list;
#X connect 0 0 10 0;
#X connect 1 0 2 0;
#X connect 2 0 3 0;
#X connect 4 0 5 0;
#X connect 5 0 6 0;
#X connect 6 0 7 0;
#X connect 6 1 1 1;
#X connect 7 0 1 1;
#X connect 8 0 1 1;
#X connect 10 0 1 0;
#X connect 10 1 2 0;
