#N struct 1097-pixel float x float y float color;
#N canvas 389 155 1090 958 10;
#X declare -path abstractions;
#X floatatom 640 213 10 0 0 1 loss - - 0;
#X floatatom 611 236 10 0 0 1 accuracy - - 0;
#N canvas 830 62 589 277 save_and_load 0;
#X listbox 50 27 20 0 0 0 - - - 0;
#X listbox 50 109 20 0 0 0 - - - 0;
#X text 185 22 write a name for the model you want to save \, without file extension (default is .ann). it will be saved in the models subdirectory of this directory;
#X text 186 107 write the name of the model you want to load \, without file extension \, saved in the models subdirectory (make sure you have first destroyed the network \, if you have already created one);
#X obj 50 76 s mnist_example;
#X obj 50 155 s mnist_example;
#X msg 50 52 save models/\$1;
#X msg 50 132 load models/\$1;
#X connect 0 0 6 0;
#X connect 1 0 7 0;
#X connect 6 0 4 0;
#X connect 7 0 5 0;
#X restore 46 156 pd save_and_load;
#X msg 46 356 confidences \$1;
#X msg 46 470 predict_to pred_out;
#N canvas 381 638 395 274 label_array 0;
#X obj 30 154 s pred_out;
#X obj 30 60 loadbang;
#X obj 30 83 t b b;
#X msg 30 131 ylabel -0.1 0 1;
#X msg 57 108 xlabel -0.05 0 1 2 3 4 5 6 7 8 9;
#X connect 1 0 2 0;
#X connect 2 0 3 0;
#X connect 2 1 4 0;
#X connect 3 0 0 0;
#X connect 4 0 0 0;
#X restore 923 628 pd label_array;
#X obj 509 159 r mnist_example;
#X obj 46 379 s mnist_example;
#X obj 46 503 s mnist_example;
#N canvas 0 50 450 250 (subpatch) 0;
#X array pred_out 10 float 0;
#X coords 0 1 9 0 512 200 1 0 0;
#X restore 499 650 graph;
#X obj 499 184 neuralnet 784 128 128 10;
#X obj 499 114 tgl 16 0 empty empty empty 0 -8 0 10 #fcfcfc #000000 #000000 0 1;
#N canvas 645 37 484 925 prepare_neuralnet 0;
#X msg 26 669 set_batch_size 128;
#X msg 26 743 train;
#X msg 25 244 set_activation_function 0 relu \, set_activation_function 1 relu \, set_activation_function 2 softmax;
#X msg 25 412 set_optimizer adam;
#X msg 25 131 load_train_set;
#X text 23 13 1) set mode;
#X text 23 219 3) set the activation functions;
#X msg 25 504 set_weight_coeff 0.01;
#X msg 25 35 classification;
#X text 25 91 2) load the training set (it will take about 2.5 minutes \, open the subpatch to see progress);
#X msg 26 834 validate;
#X msg 36 155 load_validation_set;
#X msg 25 335 set_loss_function cat_x_entropy;
#X text 23 311 4) set the loss function;
#X text 21 389 5) set the optimizer;
#X obj 25 58 s mnist_example;
#X obj 25 280 s mnist_example;
#X obj 25 358 s mnist_example;
#X obj 25 435 s mnist_example;
#X obj 25 527 s mnist_example;
#X obj 26 603 s mnist_example;
#X obj 26 692 s mnist_example;
#X obj 26 766 s mnist_example;
#X obj 26 857 s mnist_example;
#X text 23 465 6) set the initial weights coefficient (works better for classification than the default which is 0.1);
#X text 23 557 7) set the number of epochs;
#X text 25 719 9) train the model;
#X text 27 798 10) load the validation data (below point 2 \, wait for a done message in Pd's console) and then validate the model;
#X text 24 635 8) set the batch size (wait for the "batch size" message in Pd's console to move on);
#X msg 26 580 set_epochs 5;
#N canvas 1004 332 572 830 get_digits_mnist_train_set 0;
#X obj 30 20 inlet;
#X obj 30 465 print done;
#X obj 109 466 list;
#X obj 109 611 list prepend add;
#X obj 109 634 list trim;
#X msg 30 66 dir;
#X obj 30 89 pdcontrol;
#X obj 30 434 sel 0;
#X obj 30 115 pack s s;
#X floatatom 180 335 8 0 0 0 - - - 0;
#X obj 180 311 t f b b;
#X obj 30 43 t b a;
#X text 143 10 check the number atom below to see progress. could take some time before it starts counting;
#N canvas 832 186 200 342 isolate_train_or_validate 0;
#X obj 30 20 inlet;
#X obj 64 308 outlet;
#X obj 30 60 symbol;
#X obj 30 83 list fromsymbol;
#X obj 30 106 list split 5;
#X obj 64 195 list split;
#X obj 64 131 t l l;
#X obj 121 149 list length;
#X obj 121 172 - 4;
#X obj 64 218 list tosymbol;
#X obj 64 243 sel validation;
#X msg 64 266 symbol test;
#X connect 0 0 2 0;
#X connect 2 0 3 0;
#X connect 3 0 4 0;
#X connect 4 1 6 0;
#X connect 5 0 9 0;
#X connect 6 0 5 0;
#X connect 6 1 7 0;
#X connect 7 0 8 0;
#X connect 8 0 5 1;
#X connect 9 0 10 0;
#X connect 10 0 11 0;
#X connect 10 1 1 0;
#X connect 11 0 1 0;
#X restore 75 61 pd isolate_train_or_validate;
#X obj 109 657 s mnist_example;
#X obj 130 373 list prepend;
#X obj 130 396 t a a;
#X msg 91 201 kill;
#X obj 177 506 list length;
#X obj 125 488 t l l;
#X obj 125 545 spigot;
#X obj 125 566 print;
#X obj 177 527 != 785;
#X obj 130 288 route X y row;
#X obj 30 183 t a b b;
#X obj 30 233 command;
#X msg 30 145 exec python3 \$1/get_mnist_digits_unipolar.py \$1 \$2;
#X connect 0 0 11 0;
#X connect 2 0 19 0;
#X connect 2 0 3 0;
#X connect 3 0 4 0;
#X connect 4 0 14 0;
#X connect 5 0 6 0;
#X connect 6 0 8 0;
#X connect 7 0 1 0;
#X connect 7 1 1 0;
#X connect 8 0 26 0;
#X connect 10 0 9 0;
#X connect 10 1 2 0;
#X connect 10 2 15 1;
#X connect 11 0 5 0;
#X connect 11 1 13 0;
#X connect 13 0 8 1;
#X connect 15 0 16 0;
#X connect 16 0 2 1;
#X connect 16 1 15 1;
#X connect 17 0 25 0;
#X connect 18 0 22 0;
#X connect 19 0 20 0;
#X connect 19 1 18 0;
#X connect 20 0 21 0;
#X connect 22 0 20 1;
#X connect 23 0 15 0;
#X connect 23 1 15 0;
#X connect 23 2 10 0;
#X connect 24 0 25 0;
#X connect 24 1 2 1;
#X connect 24 2 15 1;
#X connect 25 0 7 0;
#X connect 25 1 23 0;
#X connect 26 0 24 0;
#X restore 25 184 pd get_digits_mnist_train_set;
#X connect 0 0 21 0;
#X connect 1 0 22 0;
#X connect 2 0 16 0;
#X connect 3 0 18 0;
#X connect 4 0 30 0;
#X connect 7 0 19 0;
#X connect 8 0 15 0;
#X connect 10 0 23 0;
#X connect 11 0 30 0;
#X connect 12 0 17 0;
#X connect 29 0 20 0;
#X restore 46 239 pd prepare_neuralnet;
#X obj 46 334 tgl 16 0 empty empty empty 0 -8 0 10 #fcfcfc #000000 #000000 0 1;
#N canvas 602 253 669 913 draw2d 0;
#X obj 122 32 inlet;
#X obj 145 269 pointer;
#X obj 145 156 f \$0;
#X obj 216 218 unpack;
#X obj 145 293 t p p;
#X obj 145 347 -;
#X obj 78 180 until;
#X msg 145 180 traverse pd-\$1-value;
#X msg 78 156 784;
#X msg 158 233 next;
#X obj 145 371 pow 2;
#X obj 217 372 pow 2;
#X obj 145 395 +;
#X obj 145 419 sqrt;
#X obj 122 57 route list;
#X obj 145 444 t f f;
#X obj 145 495 spigot;
#X obj 145 587 * 9;
#X obj 177 685 <;
#X obj 145 659 t f f;
#X obj 145 710 spigot;
#X obj 145 611 i;
#X obj 145 635 * 111;
#X obj 145 321 get \$0-pixel x y color;
#X obj 145 847 set \$0-pixel color;
#N canvas 89 197 568 541 init 0;
#X msg 234 191 clear;
#X obj 234 328 pointer;
#X obj 234 268 f \$0;
#X msg 234 304 traverse pd-\$1-value \, bang;
#X obj 234 215 s pd-\$0-value;
#X msg 98 304 0;
#X obj 69 190 until;
#X obj 69 64 inlet;
#X obj 69 132 t f f;
#X obj 69 304 f;
#X obj 69 328 until;
#X obj 124 328 f;
#X obj 154 328 + 1;
#X obj 69 95 t f b b b;
#X msg 142 304 0;
#X obj 69 386 f;
#X obj 99 386 + 1;
#X obj 69 213 t b b b;
#X obj 69 357 t b b;
#X obj 69 434 append \$0-pixel x y color;
#X msg 181 387 999;
#X obj 121 381 * -1;
#X obj 121 402 + 27;
#X connect 0 0 4 0;
#X connect 1 0 19 3;
#X connect 2 0 3 0;
#X connect 3 0 1 0;
#X connect 5 0 15 1;
#X connect 6 0 17 0;
#X connect 7 0 13 0;
#X connect 8 0 6 0;
#X connect 8 1 9 1;
#X connect 9 0 10 0;
#X connect 10 0 18 0;
#X connect 11 0 12 0;
#X connect 11 0 21 0;
#X connect 12 0 11 1;
#X connect 13 0 8 0;
#X connect 13 1 2 0;
#X connect 13 2 14 0;
#X connect 13 3 0 0;
#X connect 14 0 11 1;
#X connect 15 0 16 0;
#X connect 15 0 19 0;
#X connect 16 0 15 1;
#X connect 17 0 9 0;
#X connect 17 1 5 0;
#X connect 17 2 11 0;
#X connect 18 0 15 0;
#X connect 18 1 20 0;
#X connect 20 0 19 2;
#X connect 21 0 22 0;
#X connect 22 0 19 1;
#X restore 386 123 pd init;
#X msg 386 100 28;
#X obj 386 35 loadbang;
#X obj 453 36 r \$0-reset-drawing;
#N canvas 57 258 841 317 pixel-template 0;
#X obj 41 64 filledpolygon -x color color 0 0 0 1 0 1 1 0 1;
#X obj 41 32 struct \$0-pixel float x float y float color;
#X restore 387 163 pd pixel-template;
#X obj 32 847 tabwrite img;
#X obj 78 217 t b b;
#X obj 122 111 t b b l b;
#X msg 93 456 0;
#X obj 78 478 f;
#X obj 105 478 + 1;
#X obj 32 738 / 111;
#X obj 32 758 / 9;
#X obj 32 778 * 2;
#X obj 32 798 - 1;
#X obj 386 68 t b b;
#X obj 455 122 s img;
#X obj 32 823 * -1;
#X msg 455 101 const -1;
#X obj 145 563 / 2;
#X obj 145 536 clip 0 1;
#X obj 145 516 - 0.5;
#X obj 177 468 < 1.5;
#X obj 216 241 * 0.2;
#X obj 217 348 -;
#X obj 257 241 * 0.2;
#X obj 257 262 * -1;
#X obj 257 283 + 28;
#X obj 419 302 array define img 784;
#X connect 0 0 14 0;
#X connect 1 0 4 0;
#X connect 2 0 7 0;
#X connect 3 0 48 0;
#X connect 3 1 50 0;
#X connect 4 0 23 0;
#X connect 4 1 24 1;
#X connect 5 0 10 0;
#X connect 6 0 31 0;
#X connect 7 0 1 0;
#X connect 8 0 6 0;
#X connect 9 0 1 0;
#X connect 10 0 12 0;
#X connect 11 0 12 1;
#X connect 12 0 13 0;
#X connect 13 0 15 0;
#X connect 14 0 32 0;
#X connect 15 0 16 0;
#X connect 15 1 47 0;
#X connect 16 0 46 0;
#X connect 17 0 21 0;
#X connect 18 0 20 1;
#X connect 19 0 20 0;
#X connect 19 1 18 0;
#X connect 20 0 24 0;
#X connect 20 0 36 0;
#X connect 21 0 22 0;
#X connect 22 0 19 0;
#X connect 23 0 5 0;
#X connect 23 1 49 0;
#X connect 23 2 18 1;
#X connect 26 0 25 0;
#X connect 27 0 40 0;
#X connect 28 0 40 0;
#X connect 31 0 34 0;
#X connect 31 1 9 0;
#X connect 32 0 8 0;
#X connect 32 1 2 0;
#X connect 32 2 3 0;
#X connect 32 3 33 0;
#X connect 33 0 34 1;
#X connect 34 0 35 0;
#X connect 34 0 30 1;
#X connect 35 0 34 1;
#X connect 36 0 37 0;
#X connect 37 0 38 0;
#X connect 38 0 39 0;
#X connect 39 0 42 0;
#X connect 40 0 26 0;
#X connect 40 1 43 0;
#X connect 42 0 30 0;
#X connect 43 0 41 0;
#X connect 44 0 17 0;
#X connect 45 0 44 0;
#X connect 46 0 45 0;
#X connect 47 0 16 1;
#X connect 48 0 5 1;
#X connect 49 0 11 0;
#X connect 50 0 51 0;
#X connect 51 0 52 0;
#X connect 52 0 49 1;
#X restore 499 596 pd draw2d;
#X obj 563 596 bng 19 250 50 0 \$0-reset-drawing empty reset 22 10 0 12 #fcfcfc #000000 #000000;
#X text 652 513 <- draw here;
#X obj 499 449 pad 142 142 255 255 255;
#N canvas 687 1117 887 891 \$0-value 0;
#X scalar 1097-pixel 0 27 999 \;;
#X scalar 1097-pixel 1 27 999 \;;
#X scalar 1097-pixel 2 27 999 \;;
#X scalar 1097-pixel 3 27 999 \;;
#X scalar 1097-pixel 4 27 999 \;;
#X scalar 1097-pixel 5 27 999 \;;
#X scalar 1097-pixel 6 27 999 \;;
#X scalar 1097-pixel 7 27 999 \;;
#X scalar 1097-pixel 8 27 999 \;;
#X scalar 1097-pixel 9 27 999 \;;
#X scalar 1097-pixel 10 27 999 \;;
#X scalar 1097-pixel 11 27 999 \;;
#X scalar 1097-pixel 12 27 999 \;;
#X scalar 1097-pixel 13 27 999 \;;
#X scalar 1097-pixel 14 27 999 \;;
#X scalar 1097-pixel 15 27 999 \;;
#X scalar 1097-pixel 16 27 999 \;;
#X scalar 1097-pixel 17 27 999 \;;
#X scalar 1097-pixel 18 27 999 \;;
#X scalar 1097-pixel 19 27 999 \;;
#X scalar 1097-pixel 20 27 999 \;;
#X scalar 1097-pixel 21 27 999 \;;
#X scalar 1097-pixel 22 27 999 \;;
#X scalar 1097-pixel 23 27 999 \;;
#X scalar 1097-pixel 24 27 999 \;;
#X scalar 1097-pixel 25 27 999 \;;
#X scalar 1097-pixel 26 27 999 \;;
#X scalar 1097-pixel 27 27 999 \;;
#X scalar 1097-pixel 0 26 999 \;;
#X scalar 1097-pixel 1 26 999 \;;
#X scalar 1097-pixel 2 26 999 \;;
#X scalar 1097-pixel 3 26 999 \;;
#X scalar 1097-pixel 4 26 999 \;;
#X scalar 1097-pixel 5 26 999 \;;
#X scalar 1097-pixel 6 26 999 \;;
#X scalar 1097-pixel 7 26 999 \;;
#X scalar 1097-pixel 8 26 999 \;;
#X scalar 1097-pixel 9 26 999 \;;
#X scalar 1097-pixel 10 26 999 \;;
#X scalar 1097-pixel 11 26 999 \;;
#X scalar 1097-pixel 12 26 999 \;;
#X scalar 1097-pixel 13 26 999 \;;
#X scalar 1097-pixel 14 26 999 \;;
#X scalar 1097-pixel 15 26 999 \;;
#X scalar 1097-pixel 16 26 999 \;;
#X scalar 1097-pixel 17 26 999 \;;
#X scalar 1097-pixel 18 26 999 \;;
#X scalar 1097-pixel 19 26 999 \;;
#X scalar 1097-pixel 20 26 999 \;;
#X scalar 1097-pixel 21 26 999 \;;
#X scalar 1097-pixel 22 26 999 \;;
#X scalar 1097-pixel 23 26 999 \;;
#X scalar 1097-pixel 24 26 999 \;;
#X scalar 1097-pixel 25 26 999 \;;
#X scalar 1097-pixel 26 26 999 \;;
#X scalar 1097-pixel 27 26 999 \;;
#X scalar 1097-pixel 0 25 999 \;;
#X scalar 1097-pixel 1 25 999 \;;
#X scalar 1097-pixel 2 25 999 \;;
#X scalar 1097-pixel 3 25 999 \;;
#X scalar 1097-pixel 4 25 999 \;;
#X scalar 1097-pixel 5 25 999 \;;
#X scalar 1097-pixel 6 25 999 \;;
#X scalar 1097-pixel 7 25 999 \;;
#X scalar 1097-pixel 8 25 999 \;;
#X scalar 1097-pixel 9 25 999 \;;
#X scalar 1097-pixel 10 25 999 \;;
#X scalar 1097-pixel 11 25 999 \;;
#X scalar 1097-pixel 12 25 999 \;;
#X scalar 1097-pixel 13 25 999 \;;
#X scalar 1097-pixel 14 25 999 \;;
#X scalar 1097-pixel 15 25 999 \;;
#X scalar 1097-pixel 16 25 999 \;;
#X scalar 1097-pixel 17 25 999 \;;
#X scalar 1097-pixel 18 25 999 \;;
#X scalar 1097-pixel 19 25 999 \;;
#X scalar 1097-pixel 20 25 999 \;;
#X scalar 1097-pixel 21 25 999 \;;
#X scalar 1097-pixel 22 25 999 \;;
#X scalar 1097-pixel 23 25 999 \;;
#X scalar 1097-pixel 24 25 999 \;;
#X scalar 1097-pixel 25 25 999 \;;
#X scalar 1097-pixel 26 25 999 \;;
#X scalar 1097-pixel 27 25 999 \;;
#X scalar 1097-pixel 0 24 999 \;;
#X scalar 1097-pixel 1 24 999 \;;
#X scalar 1097-pixel 2 24 999 \;;
#X scalar 1097-pixel 3 24 999 \;;
#X scalar 1097-pixel 4 24 999 \;;
#X scalar 1097-pixel 5 24 999 \;;
#X scalar 1097-pixel 6 24 999 \;;
#X scalar 1097-pixel 7 24 999 \;;
#X scalar 1097-pixel 8 24 999 \;;
#X scalar 1097-pixel 9 24 999 \;;
#X scalar 1097-pixel 10 24 999 \;;
#X scalar 1097-pixel 11 24 999 \;;
#X scalar 1097-pixel 12 24 999 \;;
#X scalar 1097-pixel 13 24 999 \;;
#X scalar 1097-pixel 14 24 999 \;;
#X scalar 1097-pixel 15 24 999 \;;
#X scalar 1097-pixel 16 24 999 \;;
#X scalar 1097-pixel 17 24 999 \;;
#X scalar 1097-pixel 18 24 999 \;;
#X scalar 1097-pixel 19 24 999 \;;
#X scalar 1097-pixel 20 24 999 \;;
#X scalar 1097-pixel 21 24 999 \;;
#X scalar 1097-pixel 22 24 999 \;;
#X scalar 1097-pixel 23 24 999 \;;
#X scalar 1097-pixel 24 24 999 \;;
#X scalar 1097-pixel 25 24 999 \;;
#X scalar 1097-pixel 26 24 999 \;;
#X scalar 1097-pixel 27 24 999 \;;
#X scalar 1097-pixel 0 23 999 \;;
#X scalar 1097-pixel 1 23 999 \;;
#X scalar 1097-pixel 2 23 999 \;;
#X scalar 1097-pixel 3 23 999 \;;
#X scalar 1097-pixel 4 23 999 \;;
#X scalar 1097-pixel 5 23 999 \;;
#X scalar 1097-pixel 6 23 999 \;;
#X scalar 1097-pixel 7 23 999 \;;
#X scalar 1097-pixel 8 23 999 \;;
#X scalar 1097-pixel 9 23 999 \;;
#X scalar 1097-pixel 10 23 999 \;;
#X scalar 1097-pixel 11 23 999 \;;
#X scalar 1097-pixel 12 23 999 \;;
#X scalar 1097-pixel 13 23 999 \;;
#X scalar 1097-pixel 14 23 999 \;;
#X scalar 1097-pixel 15 23 999 \;;
#X scalar 1097-pixel 16 23 999 \;;
#X scalar 1097-pixel 17 23 999 \;;
#X scalar 1097-pixel 18 23 999 \;;
#X scalar 1097-pixel 19 23 999 \;;
#X scalar 1097-pixel 20 23 999 \;;
#X scalar 1097-pixel 21 23 999 \;;
#X scalar 1097-pixel 22 23 999 \;;
#X scalar 1097-pixel 23 23 999 \;;
#X scalar 1097-pixel 24 23 999 \;;
#X scalar 1097-pixel 25 23 999 \;;
#X scalar 1097-pixel 26 23 999 \;;
#X scalar 1097-pixel 27 23 999 \;;
#X scalar 1097-pixel 0 22 999 \;;
#X scalar 1097-pixel 1 22 999 \;;
#X scalar 1097-pixel 2 22 999 \;;
#X scalar 1097-pixel 3 22 999 \;;
#X scalar 1097-pixel 4 22 999 \;;
#X scalar 1097-pixel 5 22 999 \;;
#X scalar 1097-pixel 6 22 999 \;;
#X scalar 1097-pixel 7 22 999 \;;
#X scalar 1097-pixel 8 22 999 \;;
#X scalar 1097-pixel 9 22 999 \;;
#X scalar 1097-pixel 10 22 999 \;;
#X scalar 1097-pixel 11 22 999 \;;
#X scalar 1097-pixel 12 22 999 \;;
#X scalar 1097-pixel 13 22 999 \;;
#X scalar 1097-pixel 14 22 999 \;;
#X scalar 1097-pixel 15 22 999 \;;
#X scalar 1097-pixel 16 22 999 \;;
#X scalar 1097-pixel 17 22 999 \;;
#X scalar 1097-pixel 18 22 999 \;;
#X scalar 1097-pixel 19 22 999 \;;
#X scalar 1097-pixel 20 22 999 \;;
#X scalar 1097-pixel 21 22 999 \;;
#X scalar 1097-pixel 22 22 999 \;;
#X scalar 1097-pixel 23 22 999 \;;
#X scalar 1097-pixel 24 22 999 \;;
#X scalar 1097-pixel 25 22 999 \;;
#X scalar 1097-pixel 26 22 999 \;;
#X scalar 1097-pixel 27 22 999 \;;
#X scalar 1097-pixel 0 21 999 \;;
#X scalar 1097-pixel 1 21 999 \;;
#X scalar 1097-pixel 2 21 999 \;;
#X scalar 1097-pixel 3 21 999 \;;
#X scalar 1097-pixel 4 21 999 \;;
#X scalar 1097-pixel 5 21 999 \;;
#X scalar 1097-pixel 6 21 999 \;;
#X scalar 1097-pixel 7 21 999 \;;
#X scalar 1097-pixel 8 21 999 \;;
#X scalar 1097-pixel 9 21 999 \;;
#X scalar 1097-pixel 10 21 999 \;;
#X scalar 1097-pixel 11 21 999 \;;
#X scalar 1097-pixel 12 21 999 \;;
#X scalar 1097-pixel 13 21 999 \;;
#X scalar 1097-pixel 14 21 999 \;;
#X scalar 1097-pixel 15 21 999 \;;
#X scalar 1097-pixel 16 21 999 \;;
#X scalar 1097-pixel 17 21 999 \;;
#X scalar 1097-pixel 18 21 999 \;;
#X scalar 1097-pixel 19 21 999 \;;
#X scalar 1097-pixel 20 21 999 \;;
#X scalar 1097-pixel 21 21 999 \;;
#X scalar 1097-pixel 22 21 999 \;;
#X scalar 1097-pixel 23 21 999 \;;
#X scalar 1097-pixel 24 21 999 \;;
#X scalar 1097-pixel 25 21 999 \;;
#X scalar 1097-pixel 26 21 999 \;;
#X scalar 1097-pixel 27 21 999 \;;
#X scalar 1097-pixel 0 20 999 \;;
#X scalar 1097-pixel 1 20 999 \;;
#X scalar 1097-pixel 2 20 999 \;;
#X scalar 1097-pixel 3 20 999 \;;
#X scalar 1097-pixel 4 20 999 \;;
#X scalar 1097-pixel 5 20 999 \;;
#X scalar 1097-pixel 6 20 999 \;;
#X scalar 1097-pixel 7 20 999 \;;
#X scalar 1097-pixel 8 20 999 \;;
#X scalar 1097-pixel 9 20 999 \;;
#X scalar 1097-pixel 10 20 999 \;;
#X scalar 1097-pixel 11 20 999 \;;
#X scalar 1097-pixel 12 20 999 \;;
#X scalar 1097-pixel 13 20 999 \;;
#X scalar 1097-pixel 14 20 999 \;;
#X scalar 1097-pixel 15 20 999 \;;
#X scalar 1097-pixel 16 20 999 \;;
#X scalar 1097-pixel 17 20 999 \;;
#X scalar 1097-pixel 18 20 999 \;;
#X scalar 1097-pixel 19 20 999 \;;
#X scalar 1097-pixel 20 20 999 \;;
#X scalar 1097-pixel 21 20 999 \;;
#X scalar 1097-pixel 22 20 999 \;;
#X scalar 1097-pixel 23 20 999 \;;
#X scalar 1097-pixel 24 20 999 \;;
#X scalar 1097-pixel 25 20 999 \;;
#X scalar 1097-pixel 26 20 999 \;;
#X scalar 1097-pixel 27 20 999 \;;
#X scalar 1097-pixel 0 19 999 \;;
#X scalar 1097-pixel 1 19 999 \;;
#X scalar 1097-pixel 2 19 999 \;;
#X scalar 1097-pixel 3 19 999 \;;
#X scalar 1097-pixel 4 19 999 \;;
#X scalar 1097-pixel 5 19 999 \;;
#X scalar 1097-pixel 6 19 999 \;;
#X scalar 1097-pixel 7 19 999 \;;
#X scalar 1097-pixel 8 19 999 \;;
#X scalar 1097-pixel 9 19 999 \;;
#X scalar 1097-pixel 10 19 999 \;;
#X scalar 1097-pixel 11 19 999 \;;
#X scalar 1097-pixel 12 19 999 \;;
#X scalar 1097-pixel 13 19 999 \;;
#X scalar 1097-pixel 14 19 999 \;;
#X scalar 1097-pixel 15 19 999 \;;
#X scalar 1097-pixel 16 19 999 \;;
#X scalar 1097-pixel 17 19 999 \;;
#X scalar 1097-pixel 18 19 999 \;;
#X scalar 1097-pixel 19 19 999 \;;
#X scalar 1097-pixel 20 19 999 \;;
#X scalar 1097-pixel 21 19 999 \;;
#X scalar 1097-pixel 22 19 999 \;;
#X scalar 1097-pixel 23 19 999 \;;
#X scalar 1097-pixel 24 19 999 \;;
#X scalar 1097-pixel 25 19 999 \;;
#X scalar 1097-pixel 26 19 999 \;;
#X scalar 1097-pixel 27 19 999 \;;
#X scalar 1097-pixel 0 18 999 \;;
#X scalar 1097-pixel 1 18 999 \;;
#X scalar 1097-pixel 2 18 999 \;;
#X scalar 1097-pixel 3 18 999 \;;
#X scalar 1097-pixel 4 18 999 \;;
#X scalar 1097-pixel 5 18 999 \;;
#X scalar 1097-pixel 6 18 999 \;;
#X scalar 1097-pixel 7 18 999 \;;
#X scalar 1097-pixel 8 18 999 \;;
#X scalar 1097-pixel 9 18 999 \;;
#X scalar 1097-pixel 10 18 999 \;;
#X scalar 1097-pixel 11 18 999 \;;
#X scalar 1097-pixel 12 18 999 \;;
#X scalar 1097-pixel 13 18 999 \;;
#X scalar 1097-pixel 14 18 999 \;;
#X scalar 1097-pixel 15 18 999 \;;
#X scalar 1097-pixel 16 18 999 \;;
#X scalar 1097-pixel 17 18 999 \;;
#X scalar 1097-pixel 18 18 999 \;;
#X scalar 1097-pixel 19 18 999 \;;
#X scalar 1097-pixel 20 18 999 \;;
#X scalar 1097-pixel 21 18 999 \;;
#X scalar 1097-pixel 22 18 999 \;;
#X scalar 1097-pixel 23 18 999 \;;
#X scalar 1097-pixel 24 18 999 \;;
#X scalar 1097-pixel 25 18 999 \;;
#X scalar 1097-pixel 26 18 999 \;;
#X scalar 1097-pixel 27 18 999 \;;
#X scalar 1097-pixel 0 17 999 \;;
#X scalar 1097-pixel 1 17 999 \;;
#X scalar 1097-pixel 2 17 999 \;;
#X scalar 1097-pixel 3 17 999 \;;
#X scalar 1097-pixel 4 17 999 \;;
#X scalar 1097-pixel 5 17 999 \;;
#X scalar 1097-pixel 6 17 999 \;;
#X scalar 1097-pixel 7 17 999 \;;
#X scalar 1097-pixel 8 17 999 \;;
#X scalar 1097-pixel 9 17 999 \;;
#X scalar 1097-pixel 10 17 999 \;;
#X scalar 1097-pixel 11 17 999 \;;
#X scalar 1097-pixel 12 17 999 \;;
#X scalar 1097-pixel 13 17 999 \;;
#X scalar 1097-pixel 14 17 999 \;;
#X scalar 1097-pixel 15 17 999 \;;
#X scalar 1097-pixel 16 17 999 \;;
#X scalar 1097-pixel 17 17 999 \;;
#X scalar 1097-pixel 18 17 999 \;;
#X scalar 1097-pixel 19 17 999 \;;
#X scalar 1097-pixel 20 17 999 \;;
#X scalar 1097-pixel 21 17 999 \;;
#X scalar 1097-pixel 22 17 999 \;;
#X scalar 1097-pixel 23 17 999 \;;
#X scalar 1097-pixel 24 17 999 \;;
#X scalar 1097-pixel 25 17 999 \;;
#X scalar 1097-pixel 26 17 999 \;;
#X scalar 1097-pixel 27 17 999 \;;
#X scalar 1097-pixel 0 16 999 \;;
#X scalar 1097-pixel 1 16 999 \;;
#X scalar 1097-pixel 2 16 999 \;;
#X scalar 1097-pixel 3 16 999 \;;
#X scalar 1097-pixel 4 16 999 \;;
#X scalar 1097-pixel 5 16 999 \;;
#X scalar 1097-pixel 6 16 999 \;;
#X scalar 1097-pixel 7 16 999 \;;
#X scalar 1097-pixel 8 16 999 \;;
#X scalar 1097-pixel 9 16 999 \;;
#X scalar 1097-pixel 10 16 999 \;;
#X scalar 1097-pixel 11 16 999 \;;
#X scalar 1097-pixel 12 16 999 \;;
#X scalar 1097-pixel 13 16 999 \;;
#X scalar 1097-pixel 14 16 999 \;;
#X scalar 1097-pixel 15 16 999 \;;
#X scalar 1097-pixel 16 16 999 \;;
#X scalar 1097-pixel 17 16 999 \;;
#X scalar 1097-pixel 18 16 999 \;;
#X scalar 1097-pixel 19 16 999 \;;
#X scalar 1097-pixel 20 16 999 \;;
#X scalar 1097-pixel 21 16 999 \;;
#X scalar 1097-pixel 22 16 999 \;;
#X scalar 1097-pixel 23 16 999 \;;
#X scalar 1097-pixel 24 16 999 \;;
#X scalar 1097-pixel 25 16 999 \;;
#X scalar 1097-pixel 26 16 999 \;;
#X scalar 1097-pixel 27 16 999 \;;
#X scalar 1097-pixel 0 15 999 \;;
#X scalar 1097-pixel 1 15 999 \;;
#X scalar 1097-pixel 2 15 999 \;;
#X scalar 1097-pixel 3 15 999 \;;
#X scalar 1097-pixel 4 15 999 \;;
#X scalar 1097-pixel 5 15 999 \;;
#X scalar 1097-pixel 6 15 999 \;;
#X scalar 1097-pixel 7 15 999 \;;
#X scalar 1097-pixel 8 15 999 \;;
#X scalar 1097-pixel 9 15 999 \;;
#X scalar 1097-pixel 10 15 999 \;;
#X scalar 1097-pixel 11 15 999 \;;
#X scalar 1097-pixel 12 15 999 \;;
#X scalar 1097-pixel 13 15 999 \;;
#X scalar 1097-pixel 14 15 999 \;;
#X scalar 1097-pixel 15 15 999 \;;
#X scalar 1097-pixel 16 15 999 \;;
#X scalar 1097-pixel 17 15 999 \;;
#X scalar 1097-pixel 18 15 999 \;;
#X scalar 1097-pixel 19 15 999 \;;
#X scalar 1097-pixel 20 15 999 \;;
#X scalar 1097-pixel 21 15 999 \;;
#X scalar 1097-pixel 22 15 999 \;;
#X scalar 1097-pixel 23 15 999 \;;
#X scalar 1097-pixel 24 15 999 \;;
#X scalar 1097-pixel 25 15 999 \;;
#X scalar 1097-pixel 26 15 999 \;;
#X scalar 1097-pixel 27 15 999 \;;
#X scalar 1097-pixel 0 14 999 \;;
#X scalar 1097-pixel 1 14 999 \;;
#X scalar 1097-pixel 2 14 999 \;;
#X scalar 1097-pixel 3 14 999 \;;
#X scalar 1097-pixel 4 14 999 \;;
#X scalar 1097-pixel 5 14 999 \;;
#X scalar 1097-pixel 6 14 999 \;;
#X scalar 1097-pixel 7 14 999 \;;
#X scalar 1097-pixel 8 14 999 \;;
#X scalar 1097-pixel 9 14 999 \;;
#X scalar 1097-pixel 10 14 999 \;;
#X scalar 1097-pixel 11 14 999 \;;
#X scalar 1097-pixel 12 14 999 \;;
#X scalar 1097-pixel 13 14 999 \;;
#X scalar 1097-pixel 14 14 999 \;;
#X scalar 1097-pixel 15 14 999 \;;
#X scalar 1097-pixel 16 14 999 \;;
#X scalar 1097-pixel 17 14 999 \;;
#X scalar 1097-pixel 18 14 999 \;;
#X scalar 1097-pixel 19 14 999 \;;
#X scalar 1097-pixel 20 14 999 \;;
#X scalar 1097-pixel 21 14 999 \;;
#X scalar 1097-pixel 22 14 999 \;;
#X scalar 1097-pixel 23 14 999 \;;
#X scalar 1097-pixel 24 14 999 \;;
#X scalar 1097-pixel 25 14 999 \;;
#X scalar 1097-pixel 26 14 999 \;;
#X scalar 1097-pixel 27 14 999 \;;
#X scalar 1097-pixel 0 13 999 \;;
#X scalar 1097-pixel 1 13 999 \;;
#X scalar 1097-pixel 2 13 999 \;;
#X scalar 1097-pixel 3 13 999 \;;
#X scalar 1097-pixel 4 13 999 \;;
#X scalar 1097-pixel 5 13 999 \;;
#X scalar 1097-pixel 6 13 999 \;;
#X scalar 1097-pixel 7 13 999 \;;
#X scalar 1097-pixel 8 13 999 \;;
#X scalar 1097-pixel 9 13 999 \;;
#X scalar 1097-pixel 10 13 999 \;;
#X scalar 1097-pixel 11 13 999 \;;
#X scalar 1097-pixel 12 13 999 \;;
#X scalar 1097-pixel 13 13 999 \;;
#X scalar 1097-pixel 14 13 999 \;;
#X scalar 1097-pixel 15 13 999 \;;
#X scalar 1097-pixel 16 13 999 \;;
#X scalar 1097-pixel 17 13 999 \;;
#X scalar 1097-pixel 18 13 999 \;;
#X scalar 1097-pixel 19 13 999 \;;
#X scalar 1097-pixel 20 13 999 \;;
#X scalar 1097-pixel 21 13 999 \;;
#X scalar 1097-pixel 22 13 999 \;;
#X scalar 1097-pixel 23 13 999 \;;
#X scalar 1097-pixel 24 13 999 \;;
#X scalar 1097-pixel 25 13 999 \;;
#X scalar 1097-pixel 26 13 999 \;;
#X scalar 1097-pixel 27 13 999 \;;
#X scalar 1097-pixel 0 12 999 \;;
#X scalar 1097-pixel 1 12 999 \;;
#X scalar 1097-pixel 2 12 999 \;;
#X scalar 1097-pixel 3 12 999 \;;
#X scalar 1097-pixel 4 12 999 \;;
#X scalar 1097-pixel 5 12 999 \;;
#X scalar 1097-pixel 6 12 999 \;;
#X scalar 1097-pixel 7 12 999 \;;
#X scalar 1097-pixel 8 12 999 \;;
#X scalar 1097-pixel 9 12 999 \;;
#X scalar 1097-pixel 10 12 999 \;;
#X scalar 1097-pixel 11 12 999 \;;
#X scalar 1097-pixel 12 12 999 \;;
#X scalar 1097-pixel 13 12 999 \;;
#X scalar 1097-pixel 14 12 999 \;;
#X scalar 1097-pixel 15 12 999 \;;
#X scalar 1097-pixel 16 12 999 \;;
#X scalar 1097-pixel 17 12 999 \;;
#X scalar 1097-pixel 18 12 999 \;;
#X scalar 1097-pixel 19 12 999 \;;
#X scalar 1097-pixel 20 12 999 \;;
#X scalar 1097-pixel 21 12 999 \;;
#X scalar 1097-pixel 22 12 999 \;;
#X scalar 1097-pixel 23 12 999 \;;
#X scalar 1097-pixel 24 12 999 \;;
#X scalar 1097-pixel 25 12 999 \;;
#X scalar 1097-pixel 26 12 999 \;;
#X scalar 1097-pixel 27 12 999 \;;
#X scalar 1097-pixel 0 11 999 \;;
#X scalar 1097-pixel 1 11 999 \;;
#X scalar 1097-pixel 2 11 999 \;;
#X scalar 1097-pixel 3 11 999 \;;
#X scalar 1097-pixel 4 11 999 \;;
#X scalar 1097-pixel 5 11 999 \;;
#X scalar 1097-pixel 6 11 999 \;;
#X scalar 1097-pixel 7 11 999 \;;
#X scalar 1097-pixel 8 11 999 \;;
#X scalar 1097-pixel 9 11 999 \;;
#X scalar 1097-pixel 10 11 999 \;;
#X scalar 1097-pixel 11 11 999 \;;
#X scalar 1097-pixel 12 11 999 \;;
#X scalar 1097-pixel 13 11 999 \;;
#X scalar 1097-pixel 14 11 999 \;;
#X scalar 1097-pixel 15 11 999 \;;
#X scalar 1097-pixel 16 11 999 \;;
#X scalar 1097-pixel 17 11 999 \;;
#X scalar 1097-pixel 18 11 999 \;;
#X scalar 1097-pixel 19 11 999 \;;
#X scalar 1097-pixel 20 11 999 \;;
#X scalar 1097-pixel 21 11 999 \;;
#X scalar 1097-pixel 22 11 999 \;;
#X scalar 1097-pixel 23 11 999 \;;
#X scalar 1097-pixel 24 11 999 \;;
#X scalar 1097-pixel 25 11 999 \;;
#X scalar 1097-pixel 26 11 999 \;;
#X scalar 1097-pixel 27 11 999 \;;
#X scalar 1097-pixel 0 10 999 \;;
#X scalar 1097-pixel 1 10 999 \;;
#X scalar 1097-pixel 2 10 999 \;;
#X scalar 1097-pixel 3 10 999 \;;
#X scalar 1097-pixel 4 10 999 \;;
#X scalar 1097-pixel 5 10 999 \;;
#X scalar 1097-pixel 6 10 999 \;;
#X scalar 1097-pixel 7 10 999 \;;
#X scalar 1097-pixel 8 10 999 \;;
#X scalar 1097-pixel 9 10 999 \;;
#X scalar 1097-pixel 10 10 999 \;;
#X scalar 1097-pixel 11 10 999 \;;
#X scalar 1097-pixel 12 10 999 \;;
#X scalar 1097-pixel 13 10 999 \;;
#X scalar 1097-pixel 14 10 999 \;;
#X scalar 1097-pixel 15 10 999 \;;
#X scalar 1097-pixel 16 10 999 \;;
#X scalar 1097-pixel 17 10 999 \;;
#X scalar 1097-pixel 18 10 999 \;;
#X scalar 1097-pixel 19 10 999 \;;
#X scalar 1097-pixel 20 10 999 \;;
#X scalar 1097-pixel 21 10 999 \;;
#X scalar 1097-pixel 22 10 999 \;;
#X scalar 1097-pixel 23 10 999 \;;
#X scalar 1097-pixel 24 10 999 \;;
#X scalar 1097-pixel 25 10 999 \;;
#X scalar 1097-pixel 26 10 999 \;;
#X scalar 1097-pixel 27 10 999 \;;
#X scalar 1097-pixel 0 9 999 \;;
#X scalar 1097-pixel 1 9 999 \;;
#X scalar 1097-pixel 2 9 999 \;;
#X scalar 1097-pixel 3 9 999 \;;
#X scalar 1097-pixel 4 9 999 \;;
#X scalar 1097-pixel 5 9 999 \;;
#X scalar 1097-pixel 6 9 999 \;;
#X scalar 1097-pixel 7 9 999 \;;
#X scalar 1097-pixel 8 9 999 \;;
#X scalar 1097-pixel 9 9 999 \;;
#X scalar 1097-pixel 10 9 999 \;;
#X scalar 1097-pixel 11 9 999 \;;
#X scalar 1097-pixel 12 9 999 \;;
#X scalar 1097-pixel 13 9 999 \;;
#X scalar 1097-pixel 14 9 999 \;;
#X scalar 1097-pixel 15 9 999 \;;
#X scalar 1097-pixel 16 9 999 \;;
#X scalar 1097-pixel 17 9 999 \;;
#X scalar 1097-pixel 18 9 999 \;;
#X scalar 1097-pixel 19 9 999 \;;
#X scalar 1097-pixel 20 9 999 \;;
#X scalar 1097-pixel 21 9 999 \;;
#X scalar 1097-pixel 22 9 999 \;;
#X scalar 1097-pixel 23 9 999 \;;
#X scalar 1097-pixel 24 9 999 \;;
#X scalar 1097-pixel 25 9 999 \;;
#X scalar 1097-pixel 26 9 999 \;;
#X scalar 1097-pixel 27 9 999 \;;
#X scalar 1097-pixel 0 8 999 \;;
#X scalar 1097-pixel 1 8 999 \;;
#X scalar 1097-pixel 2 8 999 \;;
#X scalar 1097-pixel 3 8 999 \;;
#X scalar 1097-pixel 4 8 999 \;;
#X scalar 1097-pixel 5 8 999 \;;
#X scalar 1097-pixel 6 8 999 \;;
#X scalar 1097-pixel 7 8 999 \;;
#X scalar 1097-pixel 8 8 999 \;;
#X scalar 1097-pixel 9 8 999 \;;
#X scalar 1097-pixel 10 8 999 \;;
#X scalar 1097-pixel 11 8 999 \;;
#X scalar 1097-pixel 12 8 999 \;;
#X scalar 1097-pixel 13 8 999 \;;
#X scalar 1097-pixel 14 8 999 \;;
#X scalar 1097-pixel 15 8 999 \;;
#X scalar 1097-pixel 16 8 999 \;;
#X scalar 1097-pixel 17 8 999 \;;
#X scalar 1097-pixel 18 8 999 \;;
#X scalar 1097-pixel 19 8 999 \;;
#X scalar 1097-pixel 20 8 999 \;;
#X scalar 1097-pixel 21 8 999 \;;
#X scalar 1097-pixel 22 8 999 \;;
#X scalar 1097-pixel 23 8 999 \;;
#X scalar 1097-pixel 24 8 999 \;;
#X scalar 1097-pixel 25 8 999 \;;
#X scalar 1097-pixel 26 8 999 \;;
#X scalar 1097-pixel 27 8 999 \;;
#X scalar 1097-pixel 0 7 999 \;;
#X scalar 1097-pixel 1 7 999 \;;
#X scalar 1097-pixel 2 7 999 \;;
#X scalar 1097-pixel 3 7 999 \;;
#X scalar 1097-pixel 4 7 999 \;;
#X scalar 1097-pixel 5 7 999 \;;
#X scalar 1097-pixel 6 7 999 \;;
#X scalar 1097-pixel 7 7 999 \;;
#X scalar 1097-pixel 8 7 999 \;;
#X scalar 1097-pixel 9 7 999 \;;
#X scalar 1097-pixel 10 7 999 \;;
#X scalar 1097-pixel 11 7 999 \;;
#X scalar 1097-pixel 12 7 999 \;;
#X scalar 1097-pixel 13 7 999 \;;
#X scalar 1097-pixel 14 7 999 \;;
#X scalar 1097-pixel 15 7 999 \;;
#X scalar 1097-pixel 16 7 999 \;;
#X scalar 1097-pixel 17 7 999 \;;
#X scalar 1097-pixel 18 7 999 \;;
#X scalar 1097-pixel 19 7 999 \;;
#X scalar 1097-pixel 20 7 999 \;;
#X scalar 1097-pixel 21 7 999 \;;
#X scalar 1097-pixel 22 7 999 \;;
#X scalar 1097-pixel 23 7 999 \;;
#X scalar 1097-pixel 24 7 999 \;;
#X scalar 1097-pixel 25 7 999 \;;
#X scalar 1097-pixel 26 7 999 \;;
#X scalar 1097-pixel 27 7 999 \;;
#X scalar 1097-pixel 0 6 999 \;;
#X scalar 1097-pixel 1 6 999 \;;
#X scalar 1097-pixel 2 6 999 \;;
#X scalar 1097-pixel 3 6 999 \;;
#X scalar 1097-pixel 4 6 999 \;;
#X scalar 1097-pixel 5 6 999 \;;
#X scalar 1097-pixel 6 6 999 \;;
#X scalar 1097-pixel 7 6 999 \;;
#X scalar 1097-pixel 8 6 999 \;;
#X scalar 1097-pixel 9 6 999 \;;
#X scalar 1097-pixel 10 6 999 \;;
#X scalar 1097-pixel 11 6 999 \;;
#X scalar 1097-pixel 12 6 999 \;;
#X scalar 1097-pixel 13 6 999 \;;
#X scalar 1097-pixel 14 6 999 \;;
#X scalar 1097-pixel 15 6 999 \;;
#X scalar 1097-pixel 16 6 999 \;;
#X scalar 1097-pixel 17 6 999 \;;
#X scalar 1097-pixel 18 6 999 \;;
#X scalar 1097-pixel 19 6 999 \;;
#X scalar 1097-pixel 20 6 999 \;;
#X scalar 1097-pixel 21 6 999 \;;
#X scalar 1097-pixel 22 6 999 \;;
#X scalar 1097-pixel 23 6 999 \;;
#X scalar 1097-pixel 24 6 999 \;;
#X scalar 1097-pixel 25 6 999 \;;
#X scalar 1097-pixel 26 6 999 \;;
#X scalar 1097-pixel 27 6 999 \;;
#X scalar 1097-pixel 0 5 999 \;;
#X scalar 1097-pixel 1 5 999 \;;
#X scalar 1097-pixel 2 5 999 \;;
#X scalar 1097-pixel 3 5 999 \;;
#X scalar 1097-pixel 4 5 999 \;;
#X scalar 1097-pixel 5 5 999 \;;
#X scalar 1097-pixel 6 5 999 \;;
#X scalar 1097-pixel 7 5 999 \;;
#X scalar 1097-pixel 8 5 999 \;;
#X scalar 1097-pixel 9 5 999 \;;
#X scalar 1097-pixel 10 5 999 \;;
#X scalar 1097-pixel 11 5 999 \;;
#X scalar 1097-pixel 12 5 999 \;;
#X scalar 1097-pixel 13 5 999 \;;
#X scalar 1097-pixel 14 5 999 \;;
#X scalar 1097-pixel 15 5 999 \;;
#X scalar 1097-pixel 16 5 999 \;;
#X scalar 1097-pixel 17 5 999 \;;
#X scalar 1097-pixel 18 5 999 \;;
#X scalar 1097-pixel 19 5 999 \;;
#X scalar 1097-pixel 20 5 999 \;;
#X scalar 1097-pixel 21 5 999 \;;
#X scalar 1097-pixel 22 5 999 \;;
#X scalar 1097-pixel 23 5 999 \;;
#X scalar 1097-pixel 24 5 999 \;;
#X scalar 1097-pixel 25 5 999 \;;
#X scalar 1097-pixel 26 5 999 \;;
#X scalar 1097-pixel 27 5 999 \;;
#X scalar 1097-pixel 0 4 999 \;;
#X scalar 1097-pixel 1 4 999 \;;
#X scalar 1097-pixel 2 4 999 \;;
#X scalar 1097-pixel 3 4 999 \;;
#X scalar 1097-pixel 4 4 999 \;;
#X scalar 1097-pixel 5 4 999 \;;
#X scalar 1097-pixel 6 4 999 \;;
#X scalar 1097-pixel 7 4 999 \;;
#X scalar 1097-pixel 8 4 999 \;;
#X scalar 1097-pixel 9 4 999 \;;
#X scalar 1097-pixel 10 4 999 \;;
#X scalar 1097-pixel 11 4 999 \;;
#X scalar 1097-pixel 12 4 999 \;;
#X scalar 1097-pixel 13 4 999 \;;
#X scalar 1097-pixel 14 4 999 \;;
#X scalar 1097-pixel 15 4 999 \;;
#X scalar 1097-pixel 16 4 999 \;;
#X scalar 1097-pixel 17 4 999 \;;
#X scalar 1097-pixel 18 4 999 \;;
#X scalar 1097-pixel 19 4 999 \;;
#X scalar 1097-pixel 20 4 999 \;;
#X scalar 1097-pixel 21 4 999 \;;
#X scalar 1097-pixel 22 4 999 \;;
#X scalar 1097-pixel 23 4 999 \;;
#X scalar 1097-pixel 24 4 999 \;;
#X scalar 1097-pixel 25 4 999 \;;
#X scalar 1097-pixel 26 4 999 \;;
#X scalar 1097-pixel 27 4 999 \;;
#X scalar 1097-pixel 0 3 999 \;;
#X scalar 1097-pixel 1 3 999 \;;
#X scalar 1097-pixel 2 3 999 \;;
#X scalar 1097-pixel 3 3 999 \;;
#X scalar 1097-pixel 4 3 999 \;;
#X scalar 1097-pixel 5 3 999 \;;
#X scalar 1097-pixel 6 3 999 \;;
#X scalar 1097-pixel 7 3 999 \;;
#X scalar 1097-pixel 8 3 999 \;;
#X scalar 1097-pixel 9 3 999 \;;
#X scalar 1097-pixel 10 3 999 \;;
#X scalar 1097-pixel 11 3 999 \;;
#X scalar 1097-pixel 12 3 999 \;;
#X scalar 1097-pixel 13 3 999 \;;
#X scalar 1097-pixel 14 3 999 \;;
#X scalar 1097-pixel 15 3 999 \;;
#X scalar 1097-pixel 16 3 999 \;;
#X scalar 1097-pixel 17 3 999 \;;
#X scalar 1097-pixel 18 3 999 \;;
#X scalar 1097-pixel 19 3 999 \;;
#X scalar 1097-pixel 20 3 999 \;;
#X scalar 1097-pixel 21 3 999 \;;
#X scalar 1097-pixel 22 3 999 \;;
#X scalar 1097-pixel 23 3 999 \;;
#X scalar 1097-pixel 24 3 999 \;;
#X scalar 1097-pixel 25 3 999 \;;
#X scalar 1097-pixel 26 3 999 \;;
#X scalar 1097-pixel 27 3 999 \;;
#X scalar 1097-pixel 0 2 999 \;;
#X scalar 1097-pixel 1 2 999 \;;
#X scalar 1097-pixel 2 2 999 \;;
#X scalar 1097-pixel 3 2 999 \;;
#X scalar 1097-pixel 4 2 999 \;;
#X scalar 1097-pixel 5 2 999 \;;
#X scalar 1097-pixel 6 2 999 \;;
#X scalar 1097-pixel 7 2 999 \;;
#X scalar 1097-pixel 8 2 999 \;;
#X scalar 1097-pixel 9 2 999 \;;
#X scalar 1097-pixel 10 2 999 \;;
#X scalar 1097-pixel 11 2 999 \;;
#X scalar 1097-pixel 12 2 999 \;;
#X scalar 1097-pixel 13 2 999 \;;
#X scalar 1097-pixel 14 2 999 \;;
#X scalar 1097-pixel 15 2 999 \;;
#X scalar 1097-pixel 16 2 999 \;;
#X scalar 1097-pixel 17 2 999 \;;
#X scalar 1097-pixel 18 2 999 \;;
#X scalar 1097-pixel 19 2 999 \;;
#X scalar 1097-pixel 20 2 999 \;;
#X scalar 1097-pixel 21 2 999 \;;
#X scalar 1097-pixel 22 2 999 \;;
#X scalar 1097-pixel 23 2 999 \;;
#X scalar 1097-pixel 24 2 999 \;;
#X scalar 1097-pixel 25 2 999 \;;
#X scalar 1097-pixel 26 2 999 \;;
#X scalar 1097-pixel 27 2 999 \;;
#X scalar 1097-pixel 0 1 999 \;;
#X scalar 1097-pixel 1 1 999 \;;
#X scalar 1097-pixel 2 1 999 \;;
#X scalar 1097-pixel 3 1 999 \;;
#X scalar 1097-pixel 4 1 999 \;;
#X scalar 1097-pixel 5 1 999 \;;
#X scalar 1097-pixel 6 1 999 \;;
#X scalar 1097-pixel 7 1 999 \;;
#X scalar 1097-pixel 8 1 999 \;;
#X scalar 1097-pixel 9 1 999 \;;
#X scalar 1097-pixel 10 1 999 \;;
#X scalar 1097-pixel 11 1 999 \;;
#X scalar 1097-pixel 12 1 999 \;;
#X scalar 1097-pixel 13 1 999 \;;
#X scalar 1097-pixel 14 1 999 \;;
#X scalar 1097-pixel 15 1 999 \;;
#X scalar 1097-pixel 16 1 999 \;;
#X scalar 1097-pixel 17 1 999 \;;
#X scalar 1097-pixel 18 1 999 \;;
#X scalar 1097-pixel 19 1 999 \;;
#X scalar 1097-pixel 20 1 999 \;;
#X scalar 1097-pixel 21 1 999 \;;
#X scalar 1097-pixel 22 1 999 \;;
#X scalar 1097-pixel 23 1 999 \;;
#X scalar 1097-pixel 24 1 999 \;;
#X scalar 1097-pixel 25 1 999 \;;
#X scalar 1097-pixel 26 1 999 \;;
#X scalar 1097-pixel 27 1 999 \;;
#X scalar 1097-pixel 0 0 999 \;;
#X scalar 1097-pixel 1 0 999 \;;
#X scalar 1097-pixel 2 0 999 \;;
#X scalar 1097-pixel 3 0 999 \;;
#X scalar 1097-pixel 4 0 999 \;;
#X scalar 1097-pixel 5 0 999 \;;
#X scalar 1097-pixel 6 0 999 \;;
#X scalar 1097-pixel 7 0 999 \;;
#X scalar 1097-pixel 8 0 999 \;;
#X scalar 1097-pixel 9 0 999 \;;
#X scalar 1097-pixel 10 0 999 \;;
#X scalar 1097-pixel 11 0 999 \;;
#X scalar 1097-pixel 12 0 999 \;;
#X scalar 1097-pixel 13 0 999 \;;
#X scalar 1097-pixel 14 0 999 \;;
#X scalar 1097-pixel 15 0 999 \;;
#X scalar 1097-pixel 16 0 999 \;;
#X scalar 1097-pixel 17 0 999 \;;
#X scalar 1097-pixel 18 0 999 \;;
#X scalar 1097-pixel 19 0 999 \;;
#X scalar 1097-pixel 20 0 999 \;;
#X scalar 1097-pixel 21 0 999 \;;
#X scalar 1097-pixel 22 0 999 \;;
#X scalar 1097-pixel 23 0 999 \;;
#X scalar 1097-pixel 24 0 999 \;;
#X scalar 1097-pixel 25 0 999 \;;
#X scalar 1097-pixel 26 0 999 \;;
#X scalar 1097-pixel 27 0 999 \;;
#X coords 0 28 28 0 140 140 1 0 0;
#X restore 500 450 pd \$0-value;
#X text 45 186 2) if instead of loading a saved model you want to train the network from scratch \, open the subpatch below and follow the instructions;
#X text 46 114 1) open the subpatch below and load the saved model named "mnist_model" \, by writing this to the lower list atom.;
#X text 44 278 3) click the toggle below to force [neuralnet] to output a list of confidences \, if you want to visualize this in the "pred_out" array to the right;
#X text 45 408 4) if outputting a list of confidences \, click the "predict_to pred_out" message \, to send this list straight to the "pred_out" array. if outputting the predicted class as a float \, send "predict_to outlet";
#X msg 180 470 predict_to outlet;
#N canvas 26 350 351 294 predict 0;
#X obj 38 101 array get img;
#X obj 38 122 list prepend predict;
#X obj 38 143 list trim;
#X obj 38 78 metro 30;
#X obj 38 164 outlet;
#X obj 38 56 inlet;
#X connect 0 0 1 0;
#X connect 1 0 2 0;
#X connect 2 0 4 0;
#X connect 3 0 0 0;
#X connect 5 0 3 0;
#X restore 499 135 pd predict;
#X floatatom 499 397 5 0 0 1 confident_output - - 0;
#X obj 500 32 declare -path abstractions;
#X floatatom 45 605 5 0 0 0 - - - 0;
#X msg 45 628 confidence_thresh \$1;
#X obj 45 651 s mnist_example;
#X obj 527 329 unpack;
#X floatatom 527 352 5 0 0 3 class - - 0;
#X floatatom 577 352 5 0 0 3 confidence - - 0;
#X text 575 329 not confident output;
#X text 43 537 5) if outputting the prediction as a single value \, you can set a confidence threshold \, below which the predicitons will be output out the second outlet \, as a pair of the predicted class and the confidence;
#X text 498 88 6) click the toggle below to start predicting;
#X floatatom 555 301 5 0 0 1 epoch - - 0;
#X floatatom 583 271 5 0 0 1 batch_step - - 0;
#X text 48 30 This is the classic MNIST dataset classification example. The network tries to classify hand-written digits. This example was created by Ben Wesch.;
#X connect 3 0 7 0;
#X connect 4 0 8 0;
#X connect 6 0 10 0;
#X connect 10 0 25 0;
#X connect 10 1 30 0;
#X connect 10 2 36 0;
#X connect 10 3 37 0;
#X connect 10 4 1 0;
#X connect 10 5 0 0;
#X connect 11 0 24 0;
#X connect 13 0 3 0;
#X connect 17 0 14 0;
#X connect 23 0 8 0;
#X connect 24 0 10 0;
#X connect 27 0 28 0;
#X connect 28 0 29 0;
#X connect 30 0 31 0;
#X connect 30 1 32 0;
