#N canvas 924 540 499 323 10;
#X obj 62 173 output~;
#N canvas 1280 236 693 699 autoencoder~ 0;
#X obj 31 645 outlet~;
#X obj 30 205 t b a;
#X obj 30 230 del 100;
#X msg 30 255 start;
#X obj 30 280 readsf~;
#X obj 397 168 block~ 256;
#X msg 75 255 stop;
#X obj 31 492 *~ 1;
#X obj 88 598 *~ 0;
#X obj 52 467 == 0;
#X obj 109 555 vradio 18 1 0 2 empty empty empty 0 -9 0 10 #fcfcfc #000000 #000000 0;
#X text 135 554 whole net;
#X text 133 572 encoder-decoder;
#X listbox 30 157 20 0 0 2 audio_file_name - - 0;
#X obj 31 409 neuralnet/neuralnet~ models/audio_autoencoder~ ae;
#X obj 88 515 neuralnet/neuralnet~ models/audio_autoencoder~ decoder;
#X obj 88 454 neuralnet/neuralnet~ models/audio_autoencoder~ encoder;
#X text 420 483 <- this is the latent space;
#X text 27 23 At the bottom part of this subpatch there are three [neuralnet~] objects. One is the whole autoencoder \, and the other two are the encoder and decoder \, separately. The connections between the two are the latent space of the autoencoder.;
#X msg 30 180 open recordings/\$1;
#X text 28 105 choose an audio file (you must have a "recordings" directory inside the "examples" directory);
#X connect 1 0 2 0;
#X connect 1 1 4 0;
#X connect 2 0 3 0;
#X connect 3 0 4 0;
#X connect 4 0 16 0;
#X connect 4 0 14 0;
#X connect 6 0 4 0;
#X connect 7 0 0 0;
#X connect 8 0 0 0;
#X connect 9 0 7 1;
#X connect 10 0 8 1;
#X connect 10 0 9 0;
#X connect 13 0 19 0;
#X connect 14 0 7 0;
#X connect 15 0 8 0;
#X connect 16 0 15 0;
#X connect 16 1 15 1;
#X connect 16 2 15 2;
#X connect 16 3 15 3;
#X connect 16 4 15 4;
#X connect 16 5 15 5;
#X connect 16 6 15 6;
#X connect 16 7 15 7;
#X connect 16 8 15 8;
#X connect 16 9 15 9;
#X connect 16 10 15 10;
#X connect 16 11 15 11;
#X connect 16 12 15 12;
#X connect 16 13 15 13;
#X connect 16 14 15 14;
#X connect 16 15 15 15;
#X connect 16 16 15 16;
#X connect 16 17 15 17;
#X connect 16 18 15 18;
#X connect 16 19 15 19;
#X connect 16 20 15 20;
#X connect 16 21 15 21;
#X connect 16 22 15 22;
#X connect 16 23 15 23;
#X connect 16 24 15 24;
#X connect 16 25 15 25;
#X connect 16 26 15 26;
#X connect 16 27 15 27;
#X connect 16 28 15 28;
#X connect 16 29 15 29;
#X connect 16 30 15 30;
#X connect 16 31 15 31;
#X connect 19 0 1 0;
#X restore 62 128 pd autoencoder~;
#X text 59 28 This example uses the audio-rate version \, [neuralnet~] \, to load a saved autoencoder model. As with example 6 \, [neuralnet] must be in a subpatch \, so the block size can be set to the number of inputs and outputs of the autoencoder. Open the [pd autoencoder~] subpatch for details.;
#X connect 1 0 0 0;
#X connect 1 0 0 1;
