#N canvas 380 566 499 318 10;
#X obj 62 203 output~;
#N canvas 934 109 521 560 autoencoder~ 0;
#X obj 26 501 outlet~;
#X obj 397 168 block~ 256;
#X obj 26 470 neuralnet/neuralnet~ models/audio_autoencoder~ decoder;
#X obj 26 290 random 100;
#X obj 26 313 / 100;
#X floatatom 26 126 5 0 0 0 - - - 0;
#X obj 26 336 +;
#X msg 66 341 symbol freq\$1;
#X obj 26 359 s;
#X floatatom 218 337 5 0 0 0 - - - 0;
#X obj 218 359 s amp;
#X obj 26 430 snake_out~ 32, f 54;
#N canvas 9 175 2164 354 latent_space 0;
#X obj 70 77 osc~;
#X obj 70 125 *~;
#X obj 70 288 snake_in~ 32, f 134;
#X obj 70 311 outlet~;
#X obj 85 102 r amp;
#X obj 130 77 osc~;
#X obj 130 125 *~;
#X obj 145 102 r amp;
#X obj 130 54 r freq1;
#X obj 190 77 osc~;
#X obj 190 125 *~;
#X obj 205 102 r amp;
#X obj 250 77 osc~;
#X obj 250 125 *~;
#X obj 265 102 r amp;
#X obj 310 77 osc~;
#X obj 310 125 *~;
#X obj 325 102 r amp;
#X obj 370 77 osc~;
#X obj 370 125 *~;
#X obj 385 102 r amp;
#X obj 430 77 osc~;
#X obj 430 125 *~;
#X obj 445 102 r amp;
#X obj 490 77 osc~;
#X obj 490 125 *~;
#X obj 505 102 r amp;
#X obj 550 77 osc~;
#X obj 550 125 *~;
#X obj 565 102 r amp;
#X obj 610 77 osc~;
#X obj 610 125 *~;
#X obj 625 102 r amp;
#X obj 670 77 osc~;
#X obj 670 125 *~;
#X obj 685 102 r amp;
#X obj 730 77 osc~;
#X obj 730 125 *~;
#X obj 745 102 r amp;
#X obj 790 77 osc~;
#X obj 790 125 *~;
#X obj 805 102 r amp;
#X obj 850 77 osc~;
#X obj 850 125 *~;
#X obj 865 102 r amp;
#X obj 910 77 osc~;
#X obj 910 125 *~;
#X obj 925 102 r amp;
#X obj 970 77 osc~;
#X obj 970 125 *~;
#X obj 985 102 r amp;
#X obj 1030 77 osc~;
#X obj 1030 125 *~;
#X obj 1045 102 r amp;
#X obj 1090 77 osc~;
#X obj 1090 125 *~;
#X obj 1105 102 r amp;
#X obj 1150 77 osc~;
#X obj 1150 125 *~;
#X obj 1165 102 r amp;
#X obj 1210 77 osc~;
#X obj 1210 125 *~;
#X obj 1225 102 r amp;
#X obj 1270 77 osc~;
#X obj 1270 125 *~;
#X obj 1285 102 r amp;
#X obj 1330 77 osc~;
#X obj 1330 125 *~;
#X obj 1345 102 r amp;
#X obj 1390 77 osc~;
#X obj 1390 125 *~;
#X obj 1405 102 r amp;
#X obj 1450 77 osc~;
#X obj 1450 125 *~;
#X obj 1465 102 r amp;
#X obj 1510 77 osc~;
#X obj 1510 125 *~;
#X obj 1525 102 r amp;
#X obj 1570 77 osc~;
#X obj 1570 125 *~;
#X obj 1585 102 r amp;
#X obj 1630 77 osc~;
#X obj 1630 125 *~;
#X obj 1645 102 r amp;
#X obj 1690 77 osc~;
#X obj 1690 125 *~;
#X obj 1705 102 r amp;
#X obj 1750 77 osc~;
#X obj 1750 125 *~;
#X obj 1765 102 r amp;
#X obj 1810 77 osc~;
#X obj 1810 125 *~;
#X obj 1825 102 r amp;
#X obj 1870 77 osc~;
#X obj 1870 125 *~;
#X obj 1885 102 r amp;
#X obj 1930 77 osc~;
#X obj 1930 125 *~;
#X obj 1945 102 r amp;
#X obj 70 54 r freq0;
#X obj 190 54 r freq2;
#X obj 250 54 r freq3;
#X obj 310 54 r freq4;
#X obj 370 54 r freq5;
#X obj 430 54 r freq6;
#X obj 490 54 r freq7;
#X obj 550 54 r freq8;
#X obj 610 54 r freq9;
#X obj 670 54 r freq10;
#X obj 730 54 r freq11;
#X obj 790 54 r freq12;
#X obj 850 54 r freq13;
#X obj 910 54 r freq14;
#X obj 970 54 r freq15;
#X obj 1030 54 r freq16;
#X obj 1090 54 r freq17;
#X obj 1150 54 r freq18;
#X obj 1210 54 r freq19;
#X obj 1270 54 r freq20;
#X obj 1330 54 r freq21;
#X obj 1390 54 r freq22;
#X obj 1450 54 r freq23;
#X obj 1510 54 r freq24;
#X obj 1570 54 r freq25;
#X obj 1630 54 r freq26;
#X obj 1690 54 r freq27;
#X obj 1750 54 r freq28;
#X obj 1810 54 r freq29;
#X obj 1870 54 r freq30;
#X obj 1930 54 r freq31;
#X connect 0 0 1 0;
#X connect 1 0 2 0;
#X connect 2 0 3 0;
#X connect 4 0 1 1;
#X connect 5 0 6 0;
#X connect 6 0 2 1;
#X connect 7 0 6 1;
#X connect 8 0 5 0;
#X connect 9 0 10 0;
#X connect 10 0 2 2;
#X connect 11 0 10 1;
#X connect 12 0 13 0;
#X connect 13 0 2 3;
#X connect 14 0 13 1;
#X connect 15 0 16 0;
#X connect 16 0 2 4;
#X connect 17 0 16 1;
#X connect 18 0 19 0;
#X connect 19 0 2 5;
#X connect 20 0 19 1;
#X connect 21 0 22 0;
#X connect 22 0 2 6;
#X connect 23 0 22 1;
#X connect 24 0 25 0;
#X connect 25 0 2 7;
#X connect 26 0 25 1;
#X connect 27 0 28 0;
#X connect 28 0 2 8;
#X connect 29 0 28 1;
#X connect 30 0 31 0;
#X connect 31 0 2 9;
#X connect 32 0 31 1;
#X connect 33 0 34 0;
#X connect 34 0 2 10;
#X connect 35 0 34 1;
#X connect 36 0 37 0;
#X connect 37 0 2 11;
#X connect 38 0 37 1;
#X connect 39 0 40 0;
#X connect 40 0 2 12;
#X connect 41 0 40 1;
#X connect 42 0 43 0;
#X connect 43 0 2 13;
#X connect 44 0 43 1;
#X connect 45 0 46 0;
#X connect 46 0 2 14;
#X connect 47 0 46 1;
#X connect 48 0 49 0;
#X connect 49 0 2 15;
#X connect 50 0 49 1;
#X connect 51 0 52 0;
#X connect 52 0 2 16;
#X connect 53 0 52 1;
#X connect 54 0 55 0;
#X connect 55 0 2 17;
#X connect 56 0 55 1;
#X connect 57 0 58 0;
#X connect 58 0 2 18;
#X connect 59 0 58 1;
#X connect 60 0 61 0;
#X connect 61 0 2 19;
#X connect 62 0 61 1;
#X connect 63 0 64 0;
#X connect 64 0 2 20;
#X connect 65 0 64 1;
#X connect 66 0 67 0;
#X connect 67 0 2 21;
#X connect 68 0 67 1;
#X connect 69 0 70 0;
#X connect 70 0 2 22;
#X connect 71 0 70 1;
#X connect 72 0 73 0;
#X connect 73 0 2 23;
#X connect 74 0 73 1;
#X connect 75 0 76 0;
#X connect 76 0 2 24;
#X connect 77 0 76 1;
#X connect 78 0 79 0;
#X connect 79 0 2 25;
#X connect 80 0 79 1;
#X connect 81 0 82 0;
#X connect 82 0 2 26;
#X connect 83 0 82 1;
#X connect 84 0 85 0;
#X connect 85 0 2 27;
#X connect 86 0 85 1;
#X connect 87 0 88 0;
#X connect 88 0 2 28;
#X connect 89 0 88 1;
#X connect 90 0 91 0;
#X connect 91 0 2 29;
#X connect 92 0 91 1;
#X connect 93 0 94 0;
#X connect 94 0 2 30;
#X connect 95 0 94 1;
#X connect 96 0 97 0;
#X connect 97 0 2 31;
#X connect 98 0 97 1;
#X connect 99 0 0 0;
#X connect 100 0 9 0;
#X connect 101 0 12 0;
#X connect 102 0 15 0;
#X connect 103 0 18 0;
#X connect 104 0 21 0;
#X connect 105 0 24 0;
#X connect 106 0 27 0;
#X connect 107 0 30 0;
#X connect 108 0 33 0;
#X connect 109 0 36 0;
#X connect 110 0 39 0;
#X connect 111 0 42 0;
#X connect 112 0 45 0;
#X connect 113 0 48 0;
#X connect 114 0 51 0;
#X connect 115 0 54 0;
#X connect 116 0 57 0;
#X connect 117 0 60 0;
#X connect 118 0 63 0;
#X connect 119 0 66 0;
#X connect 120 0 69 0;
#X connect 121 0 72 0;
#X connect 122 0 75 0;
#X connect 123 0 78 0;
#X connect 124 0 81 0;
#X connect 125 0 84 0;
#X connect 126 0 87 0;
#X connect 127 0 90 0;
#X connect 128 0 93 0;
#X connect 129 0 96 0;
#X restore 26 407 pd latent_space;
#X msg 26 172 32;
#X obj 26 195 until;
#X obj 26 242 f;
#X obj 55 242 + 1;
#X msg 41 218 0;
#X obj 26 265 t b f;
#X obj 26 148 t b b f;
#X text 27 23 Provide a base frequency where small deviations will be created by [random] \, one for each of the oscillators in [pd latent_space] \, that control the latent space of the autoencoder;
#X text 220 315 control the amplitude of the oscillators;
#X connect 2 0 0 0;
#X connect 3 0 4 0;
#X connect 4 0 6 0;
#X connect 5 0 19 0;
#X connect 6 0 8 0;
#X connect 7 0 8 1;
#X connect 9 0 10 0;
#X connect 11 0 2 0;
#X connect 11 1 2 1;
#X connect 11 2 2 2;
#X connect 11 3 2 3;
#X connect 11 4 2 4;
#X connect 11 5 2 5;
#X connect 11 6 2 6;
#X connect 11 7 2 7;
#X connect 11 8 2 8;
#X connect 11 9 2 9;
#X connect 11 10 2 10;
#X connect 11 11 2 11;
#X connect 11 12 2 12;
#X connect 11 13 2 13;
#X connect 11 14 2 14;
#X connect 11 15 2 15;
#X connect 11 16 2 16;
#X connect 11 17 2 17;
#X connect 11 18 2 18;
#X connect 11 19 2 19;
#X connect 11 20 2 20;
#X connect 11 21 2 21;
#X connect 11 22 2 22;
#X connect 11 23 2 23;
#X connect 11 24 2 24;
#X connect 11 25 2 25;
#X connect 11 26 2 26;
#X connect 11 27 2 27;
#X connect 11 28 2 28;
#X connect 11 29 2 29;
#X connect 11 30 2 30;
#X connect 11 31 2 31;
#X connect 12 0 11 0;
#X connect 13 0 14 0;
#X connect 14 0 15 0;
#X connect 15 0 16 0;
#X connect 15 0 18 0;
#X connect 16 0 15 1;
#X connect 17 0 15 1;
#X connect 18 0 3 0;
#X connect 18 1 7 0;
#X connect 19 0 13 0;
#X connect 19 1 17 0;
#X connect 19 2 6 1;
#X restore 62 158 pd autoencoder~;
#X text 59 49 This example uses only the decoder of a trained autoencoder to produce sound by controlling the latent space. Open [pd autoencoder~] for details.;
#X connect 1 0 0 0;
#X connect 1 0 0 1;
